%
M48
M72
T01C0.0236
T02C0.0315
T03C0.0400
T04C0.0630
T05C0.1102
%
T01
X6595Y9482
X10095Y11107
T02
X1720Y12607
X1720Y11857
X6345Y12107
X5970Y11732
X5720Y13857
X4720Y13857
X1720Y8857
X1720Y7857
X1720Y6857
T03
X17720Y9357
X17720Y8357
X17720Y7357
X17720Y6357
X15720Y6357
X15720Y7357
X15720Y8357
X15720Y9357
X13720Y9357
X13720Y8357
X13720Y7357
X13720Y6357
X11720Y6357
X11720Y7357
X11720Y8357
X11720Y9357
X11220Y12857
X10220Y12857
X9220Y12857
X8220Y12857
X7220Y12857
X14220Y12857
X13220Y12857
X4720Y9357
X4720Y8357
X4720Y7357
X4720Y6357
X2720Y6357
X2720Y7357
X2720Y8357
X2720Y9357
X7220Y4857
X8220Y4857
X9220Y4857
X10220Y4857
T04
X18173Y2857
X16204Y2857
X14236Y2857
X12173Y2857
X10204Y2857
X8236Y2857
X6173Y2857
X4204Y2857
X2236Y2857
T05
X17220Y12357
X17220Y4857
X3220Y4857
X3220Y12357
M30
