G75*
%MOIN*%
%OFA0B0*%
%FSLAX25Y25*%
%IPPOS*%
%LPD*%
%AMOC8*
5,1,8,0,0,1.08239X$1,22.5*
%
%ADD10C,0.00000*%
D10*
X0022200Y0013565D02*
X0182200Y0013565D01*
X0182442Y0013568D01*
X0182683Y0013577D01*
X0182924Y0013591D01*
X0183165Y0013612D01*
X0183405Y0013638D01*
X0183645Y0013670D01*
X0183884Y0013708D01*
X0184121Y0013751D01*
X0184358Y0013801D01*
X0184593Y0013856D01*
X0184827Y0013916D01*
X0185059Y0013983D01*
X0185290Y0014054D01*
X0185519Y0014132D01*
X0185746Y0014215D01*
X0185971Y0014303D01*
X0186194Y0014397D01*
X0186414Y0014496D01*
X0186632Y0014601D01*
X0186847Y0014710D01*
X0187060Y0014825D01*
X0187270Y0014945D01*
X0187476Y0015070D01*
X0187680Y0015200D01*
X0187881Y0015335D01*
X0188078Y0015475D01*
X0188272Y0015619D01*
X0188462Y0015768D01*
X0188648Y0015922D01*
X0188831Y0016080D01*
X0189010Y0016242D01*
X0189185Y0016409D01*
X0189356Y0016580D01*
X0189523Y0016755D01*
X0189685Y0016934D01*
X0189843Y0017117D01*
X0189997Y0017303D01*
X0190146Y0017493D01*
X0190290Y0017687D01*
X0190430Y0017884D01*
X0190565Y0018085D01*
X0190695Y0018289D01*
X0190820Y0018495D01*
X0190940Y0018705D01*
X0191055Y0018918D01*
X0191164Y0019133D01*
X0191269Y0019351D01*
X0191368Y0019571D01*
X0191462Y0019794D01*
X0191550Y0020019D01*
X0191633Y0020246D01*
X0191711Y0020475D01*
X0191782Y0020706D01*
X0191849Y0020938D01*
X0191909Y0021172D01*
X0191964Y0021407D01*
X0192014Y0021644D01*
X0192057Y0021881D01*
X0192095Y0022120D01*
X0192127Y0022360D01*
X0192153Y0022600D01*
X0192174Y0022841D01*
X0192188Y0023082D01*
X0192197Y0023323D01*
X0192200Y0023565D01*
X0192200Y0113565D01*
X0166688Y0123565D02*
X0166690Y0123713D01*
X0166696Y0123861D01*
X0166706Y0124009D01*
X0166720Y0124156D01*
X0166738Y0124303D01*
X0166759Y0124449D01*
X0166785Y0124595D01*
X0166815Y0124740D01*
X0166848Y0124884D01*
X0166886Y0125027D01*
X0166927Y0125169D01*
X0166972Y0125310D01*
X0167020Y0125450D01*
X0167073Y0125589D01*
X0167129Y0125726D01*
X0167189Y0125861D01*
X0167252Y0125995D01*
X0167319Y0126127D01*
X0167390Y0126257D01*
X0167464Y0126385D01*
X0167541Y0126511D01*
X0167622Y0126635D01*
X0167706Y0126757D01*
X0167793Y0126876D01*
X0167884Y0126993D01*
X0167978Y0127108D01*
X0168074Y0127220D01*
X0168174Y0127330D01*
X0168276Y0127436D01*
X0168382Y0127540D01*
X0168490Y0127641D01*
X0168601Y0127739D01*
X0168714Y0127835D01*
X0168830Y0127927D01*
X0168948Y0128016D01*
X0169069Y0128101D01*
X0169192Y0128184D01*
X0169317Y0128263D01*
X0169444Y0128339D01*
X0169573Y0128411D01*
X0169704Y0128480D01*
X0169837Y0128545D01*
X0169972Y0128606D01*
X0170108Y0128664D01*
X0170245Y0128719D01*
X0170384Y0128769D01*
X0170525Y0128816D01*
X0170666Y0128859D01*
X0170809Y0128899D01*
X0170953Y0128934D01*
X0171097Y0128966D01*
X0171243Y0128993D01*
X0171389Y0129017D01*
X0171536Y0129037D01*
X0171683Y0129053D01*
X0171830Y0129065D01*
X0171978Y0129073D01*
X0172126Y0129077D01*
X0172274Y0129077D01*
X0172422Y0129073D01*
X0172570Y0129065D01*
X0172717Y0129053D01*
X0172864Y0129037D01*
X0173011Y0129017D01*
X0173157Y0128993D01*
X0173303Y0128966D01*
X0173447Y0128934D01*
X0173591Y0128899D01*
X0173734Y0128859D01*
X0173875Y0128816D01*
X0174016Y0128769D01*
X0174155Y0128719D01*
X0174292Y0128664D01*
X0174428Y0128606D01*
X0174563Y0128545D01*
X0174696Y0128480D01*
X0174827Y0128411D01*
X0174956Y0128339D01*
X0175083Y0128263D01*
X0175208Y0128184D01*
X0175331Y0128101D01*
X0175452Y0128016D01*
X0175570Y0127927D01*
X0175686Y0127835D01*
X0175799Y0127739D01*
X0175910Y0127641D01*
X0176018Y0127540D01*
X0176124Y0127436D01*
X0176226Y0127330D01*
X0176326Y0127220D01*
X0176422Y0127108D01*
X0176516Y0126993D01*
X0176607Y0126876D01*
X0176694Y0126757D01*
X0176778Y0126635D01*
X0176859Y0126511D01*
X0176936Y0126385D01*
X0177010Y0126257D01*
X0177081Y0126127D01*
X0177148Y0125995D01*
X0177211Y0125861D01*
X0177271Y0125726D01*
X0177327Y0125589D01*
X0177380Y0125450D01*
X0177428Y0125310D01*
X0177473Y0125169D01*
X0177514Y0125027D01*
X0177552Y0124884D01*
X0177585Y0124740D01*
X0177615Y0124595D01*
X0177641Y0124449D01*
X0177662Y0124303D01*
X0177680Y0124156D01*
X0177694Y0124009D01*
X0177704Y0123861D01*
X0177710Y0123713D01*
X0177712Y0123565D01*
X0177710Y0123417D01*
X0177704Y0123269D01*
X0177694Y0123121D01*
X0177680Y0122974D01*
X0177662Y0122827D01*
X0177641Y0122681D01*
X0177615Y0122535D01*
X0177585Y0122390D01*
X0177552Y0122246D01*
X0177514Y0122103D01*
X0177473Y0121961D01*
X0177428Y0121820D01*
X0177380Y0121680D01*
X0177327Y0121541D01*
X0177271Y0121404D01*
X0177211Y0121269D01*
X0177148Y0121135D01*
X0177081Y0121003D01*
X0177010Y0120873D01*
X0176936Y0120745D01*
X0176859Y0120619D01*
X0176778Y0120495D01*
X0176694Y0120373D01*
X0176607Y0120254D01*
X0176516Y0120137D01*
X0176422Y0120022D01*
X0176326Y0119910D01*
X0176226Y0119800D01*
X0176124Y0119694D01*
X0176018Y0119590D01*
X0175910Y0119489D01*
X0175799Y0119391D01*
X0175686Y0119295D01*
X0175570Y0119203D01*
X0175452Y0119114D01*
X0175331Y0119029D01*
X0175208Y0118946D01*
X0175083Y0118867D01*
X0174956Y0118791D01*
X0174827Y0118719D01*
X0174696Y0118650D01*
X0174563Y0118585D01*
X0174428Y0118524D01*
X0174292Y0118466D01*
X0174155Y0118411D01*
X0174016Y0118361D01*
X0173875Y0118314D01*
X0173734Y0118271D01*
X0173591Y0118231D01*
X0173447Y0118196D01*
X0173303Y0118164D01*
X0173157Y0118137D01*
X0173011Y0118113D01*
X0172864Y0118093D01*
X0172717Y0118077D01*
X0172570Y0118065D01*
X0172422Y0118057D01*
X0172274Y0118053D01*
X0172126Y0118053D01*
X0171978Y0118057D01*
X0171830Y0118065D01*
X0171683Y0118077D01*
X0171536Y0118093D01*
X0171389Y0118113D01*
X0171243Y0118137D01*
X0171097Y0118164D01*
X0170953Y0118196D01*
X0170809Y0118231D01*
X0170666Y0118271D01*
X0170525Y0118314D01*
X0170384Y0118361D01*
X0170245Y0118411D01*
X0170108Y0118466D01*
X0169972Y0118524D01*
X0169837Y0118585D01*
X0169704Y0118650D01*
X0169573Y0118719D01*
X0169444Y0118791D01*
X0169317Y0118867D01*
X0169192Y0118946D01*
X0169069Y0119029D01*
X0168948Y0119114D01*
X0168830Y0119203D01*
X0168714Y0119295D01*
X0168601Y0119391D01*
X0168490Y0119489D01*
X0168382Y0119590D01*
X0168276Y0119694D01*
X0168174Y0119800D01*
X0168074Y0119910D01*
X0167978Y0120022D01*
X0167884Y0120137D01*
X0167793Y0120254D01*
X0167706Y0120373D01*
X0167622Y0120495D01*
X0167541Y0120619D01*
X0167464Y0120745D01*
X0167390Y0120873D01*
X0167319Y0121003D01*
X0167252Y0121135D01*
X0167189Y0121269D01*
X0167129Y0121404D01*
X0167073Y0121541D01*
X0167020Y0121680D01*
X0166972Y0121820D01*
X0166927Y0121961D01*
X0166886Y0122103D01*
X0166848Y0122246D01*
X0166815Y0122390D01*
X0166785Y0122535D01*
X0166759Y0122681D01*
X0166738Y0122827D01*
X0166720Y0122974D01*
X0166706Y0123121D01*
X0166696Y0123269D01*
X0166690Y0123417D01*
X0166688Y0123565D01*
X0162200Y0143565D02*
X0162925Y0143556D01*
X0163649Y0143530D01*
X0164373Y0143486D01*
X0165095Y0143425D01*
X0165816Y0143346D01*
X0166535Y0143250D01*
X0167251Y0143137D01*
X0167964Y0143006D01*
X0168674Y0142858D01*
X0169379Y0142693D01*
X0170081Y0142511D01*
X0170778Y0142312D01*
X0171471Y0142097D01*
X0172157Y0141864D01*
X0172838Y0141615D01*
X0173513Y0141350D01*
X0174181Y0141069D01*
X0174842Y0140771D01*
X0175496Y0140458D01*
X0176142Y0140129D01*
X0176780Y0139784D01*
X0177409Y0139424D01*
X0178029Y0139049D01*
X0178640Y0138659D01*
X0179242Y0138255D01*
X0179834Y0137836D01*
X0180415Y0137402D01*
X0180986Y0136955D01*
X0181545Y0136494D01*
X0182094Y0136020D01*
X0182630Y0135533D01*
X0183155Y0135033D01*
X0183668Y0134520D01*
X0184168Y0133995D01*
X0184655Y0133459D01*
X0185129Y0132910D01*
X0185590Y0132351D01*
X0186037Y0131780D01*
X0186471Y0131199D01*
X0186890Y0130607D01*
X0187294Y0130005D01*
X0187684Y0129394D01*
X0188059Y0128774D01*
X0188419Y0128145D01*
X0188764Y0127507D01*
X0189093Y0126861D01*
X0189406Y0126207D01*
X0189704Y0125546D01*
X0189985Y0124878D01*
X0190250Y0124203D01*
X0190499Y0123522D01*
X0190732Y0122836D01*
X0190947Y0122143D01*
X0191146Y0121446D01*
X0191328Y0120744D01*
X0191493Y0120039D01*
X0191641Y0119329D01*
X0191772Y0118616D01*
X0191885Y0117900D01*
X0191981Y0117181D01*
X0192060Y0116460D01*
X0192121Y0115738D01*
X0192165Y0115014D01*
X0192191Y0114290D01*
X0192200Y0113565D01*
X0162200Y0143565D02*
X0022200Y0143565D01*
X0021958Y0143562D01*
X0021717Y0143553D01*
X0021476Y0143539D01*
X0021235Y0143518D01*
X0020995Y0143492D01*
X0020755Y0143460D01*
X0020516Y0143422D01*
X0020279Y0143379D01*
X0020042Y0143329D01*
X0019807Y0143274D01*
X0019573Y0143214D01*
X0019341Y0143147D01*
X0019110Y0143076D01*
X0018881Y0142998D01*
X0018654Y0142915D01*
X0018429Y0142827D01*
X0018206Y0142733D01*
X0017986Y0142634D01*
X0017768Y0142529D01*
X0017553Y0142420D01*
X0017340Y0142305D01*
X0017130Y0142185D01*
X0016924Y0142060D01*
X0016720Y0141930D01*
X0016519Y0141795D01*
X0016322Y0141655D01*
X0016128Y0141511D01*
X0015938Y0141362D01*
X0015752Y0141208D01*
X0015569Y0141050D01*
X0015390Y0140888D01*
X0015215Y0140721D01*
X0015044Y0140550D01*
X0014877Y0140375D01*
X0014715Y0140196D01*
X0014557Y0140013D01*
X0014403Y0139827D01*
X0014254Y0139637D01*
X0014110Y0139443D01*
X0013970Y0139246D01*
X0013835Y0139045D01*
X0013705Y0138841D01*
X0013580Y0138635D01*
X0013460Y0138425D01*
X0013345Y0138212D01*
X0013236Y0137997D01*
X0013131Y0137779D01*
X0013032Y0137559D01*
X0012938Y0137336D01*
X0012850Y0137111D01*
X0012767Y0136884D01*
X0012689Y0136655D01*
X0012618Y0136424D01*
X0012551Y0136192D01*
X0012491Y0135958D01*
X0012436Y0135723D01*
X0012386Y0135486D01*
X0012343Y0135249D01*
X0012305Y0135010D01*
X0012273Y0134770D01*
X0012247Y0134530D01*
X0012226Y0134289D01*
X0012212Y0134048D01*
X0012203Y0133807D01*
X0012200Y0133565D01*
X0012200Y0023565D01*
X0012203Y0023323D01*
X0012212Y0023082D01*
X0012226Y0022841D01*
X0012247Y0022600D01*
X0012273Y0022360D01*
X0012305Y0022120D01*
X0012343Y0021881D01*
X0012386Y0021644D01*
X0012436Y0021407D01*
X0012491Y0021172D01*
X0012551Y0020938D01*
X0012618Y0020706D01*
X0012689Y0020475D01*
X0012767Y0020246D01*
X0012850Y0020019D01*
X0012938Y0019794D01*
X0013032Y0019571D01*
X0013131Y0019351D01*
X0013236Y0019133D01*
X0013345Y0018918D01*
X0013460Y0018705D01*
X0013580Y0018495D01*
X0013705Y0018289D01*
X0013835Y0018085D01*
X0013970Y0017884D01*
X0014110Y0017687D01*
X0014254Y0017493D01*
X0014403Y0017303D01*
X0014557Y0017117D01*
X0014715Y0016934D01*
X0014877Y0016755D01*
X0015044Y0016580D01*
X0015215Y0016409D01*
X0015390Y0016242D01*
X0015569Y0016080D01*
X0015752Y0015922D01*
X0015938Y0015768D01*
X0016128Y0015619D01*
X0016322Y0015475D01*
X0016519Y0015335D01*
X0016720Y0015200D01*
X0016924Y0015070D01*
X0017130Y0014945D01*
X0017340Y0014825D01*
X0017553Y0014710D01*
X0017768Y0014601D01*
X0017986Y0014496D01*
X0018206Y0014397D01*
X0018429Y0014303D01*
X0018654Y0014215D01*
X0018881Y0014132D01*
X0019110Y0014054D01*
X0019341Y0013983D01*
X0019573Y0013916D01*
X0019807Y0013856D01*
X0020042Y0013801D01*
X0020279Y0013751D01*
X0020516Y0013708D01*
X0020755Y0013670D01*
X0020995Y0013638D01*
X0021235Y0013612D01*
X0021476Y0013591D01*
X0021717Y0013577D01*
X0021958Y0013568D01*
X0022200Y0013565D01*
X0026688Y0048565D02*
X0026690Y0048713D01*
X0026696Y0048861D01*
X0026706Y0049009D01*
X0026720Y0049156D01*
X0026738Y0049303D01*
X0026759Y0049449D01*
X0026785Y0049595D01*
X0026815Y0049740D01*
X0026848Y0049884D01*
X0026886Y0050027D01*
X0026927Y0050169D01*
X0026972Y0050310D01*
X0027020Y0050450D01*
X0027073Y0050589D01*
X0027129Y0050726D01*
X0027189Y0050861D01*
X0027252Y0050995D01*
X0027319Y0051127D01*
X0027390Y0051257D01*
X0027464Y0051385D01*
X0027541Y0051511D01*
X0027622Y0051635D01*
X0027706Y0051757D01*
X0027793Y0051876D01*
X0027884Y0051993D01*
X0027978Y0052108D01*
X0028074Y0052220D01*
X0028174Y0052330D01*
X0028276Y0052436D01*
X0028382Y0052540D01*
X0028490Y0052641D01*
X0028601Y0052739D01*
X0028714Y0052835D01*
X0028830Y0052927D01*
X0028948Y0053016D01*
X0029069Y0053101D01*
X0029192Y0053184D01*
X0029317Y0053263D01*
X0029444Y0053339D01*
X0029573Y0053411D01*
X0029704Y0053480D01*
X0029837Y0053545D01*
X0029972Y0053606D01*
X0030108Y0053664D01*
X0030245Y0053719D01*
X0030384Y0053769D01*
X0030525Y0053816D01*
X0030666Y0053859D01*
X0030809Y0053899D01*
X0030953Y0053934D01*
X0031097Y0053966D01*
X0031243Y0053993D01*
X0031389Y0054017D01*
X0031536Y0054037D01*
X0031683Y0054053D01*
X0031830Y0054065D01*
X0031978Y0054073D01*
X0032126Y0054077D01*
X0032274Y0054077D01*
X0032422Y0054073D01*
X0032570Y0054065D01*
X0032717Y0054053D01*
X0032864Y0054037D01*
X0033011Y0054017D01*
X0033157Y0053993D01*
X0033303Y0053966D01*
X0033447Y0053934D01*
X0033591Y0053899D01*
X0033734Y0053859D01*
X0033875Y0053816D01*
X0034016Y0053769D01*
X0034155Y0053719D01*
X0034292Y0053664D01*
X0034428Y0053606D01*
X0034563Y0053545D01*
X0034696Y0053480D01*
X0034827Y0053411D01*
X0034956Y0053339D01*
X0035083Y0053263D01*
X0035208Y0053184D01*
X0035331Y0053101D01*
X0035452Y0053016D01*
X0035570Y0052927D01*
X0035686Y0052835D01*
X0035799Y0052739D01*
X0035910Y0052641D01*
X0036018Y0052540D01*
X0036124Y0052436D01*
X0036226Y0052330D01*
X0036326Y0052220D01*
X0036422Y0052108D01*
X0036516Y0051993D01*
X0036607Y0051876D01*
X0036694Y0051757D01*
X0036778Y0051635D01*
X0036859Y0051511D01*
X0036936Y0051385D01*
X0037010Y0051257D01*
X0037081Y0051127D01*
X0037148Y0050995D01*
X0037211Y0050861D01*
X0037271Y0050726D01*
X0037327Y0050589D01*
X0037380Y0050450D01*
X0037428Y0050310D01*
X0037473Y0050169D01*
X0037514Y0050027D01*
X0037552Y0049884D01*
X0037585Y0049740D01*
X0037615Y0049595D01*
X0037641Y0049449D01*
X0037662Y0049303D01*
X0037680Y0049156D01*
X0037694Y0049009D01*
X0037704Y0048861D01*
X0037710Y0048713D01*
X0037712Y0048565D01*
X0037710Y0048417D01*
X0037704Y0048269D01*
X0037694Y0048121D01*
X0037680Y0047974D01*
X0037662Y0047827D01*
X0037641Y0047681D01*
X0037615Y0047535D01*
X0037585Y0047390D01*
X0037552Y0047246D01*
X0037514Y0047103D01*
X0037473Y0046961D01*
X0037428Y0046820D01*
X0037380Y0046680D01*
X0037327Y0046541D01*
X0037271Y0046404D01*
X0037211Y0046269D01*
X0037148Y0046135D01*
X0037081Y0046003D01*
X0037010Y0045873D01*
X0036936Y0045745D01*
X0036859Y0045619D01*
X0036778Y0045495D01*
X0036694Y0045373D01*
X0036607Y0045254D01*
X0036516Y0045137D01*
X0036422Y0045022D01*
X0036326Y0044910D01*
X0036226Y0044800D01*
X0036124Y0044694D01*
X0036018Y0044590D01*
X0035910Y0044489D01*
X0035799Y0044391D01*
X0035686Y0044295D01*
X0035570Y0044203D01*
X0035452Y0044114D01*
X0035331Y0044029D01*
X0035208Y0043946D01*
X0035083Y0043867D01*
X0034956Y0043791D01*
X0034827Y0043719D01*
X0034696Y0043650D01*
X0034563Y0043585D01*
X0034428Y0043524D01*
X0034292Y0043466D01*
X0034155Y0043411D01*
X0034016Y0043361D01*
X0033875Y0043314D01*
X0033734Y0043271D01*
X0033591Y0043231D01*
X0033447Y0043196D01*
X0033303Y0043164D01*
X0033157Y0043137D01*
X0033011Y0043113D01*
X0032864Y0043093D01*
X0032717Y0043077D01*
X0032570Y0043065D01*
X0032422Y0043057D01*
X0032274Y0043053D01*
X0032126Y0043053D01*
X0031978Y0043057D01*
X0031830Y0043065D01*
X0031683Y0043077D01*
X0031536Y0043093D01*
X0031389Y0043113D01*
X0031243Y0043137D01*
X0031097Y0043164D01*
X0030953Y0043196D01*
X0030809Y0043231D01*
X0030666Y0043271D01*
X0030525Y0043314D01*
X0030384Y0043361D01*
X0030245Y0043411D01*
X0030108Y0043466D01*
X0029972Y0043524D01*
X0029837Y0043585D01*
X0029704Y0043650D01*
X0029573Y0043719D01*
X0029444Y0043791D01*
X0029317Y0043867D01*
X0029192Y0043946D01*
X0029069Y0044029D01*
X0028948Y0044114D01*
X0028830Y0044203D01*
X0028714Y0044295D01*
X0028601Y0044391D01*
X0028490Y0044489D01*
X0028382Y0044590D01*
X0028276Y0044694D01*
X0028174Y0044800D01*
X0028074Y0044910D01*
X0027978Y0045022D01*
X0027884Y0045137D01*
X0027793Y0045254D01*
X0027706Y0045373D01*
X0027622Y0045495D01*
X0027541Y0045619D01*
X0027464Y0045745D01*
X0027390Y0045873D01*
X0027319Y0046003D01*
X0027252Y0046135D01*
X0027189Y0046269D01*
X0027129Y0046404D01*
X0027073Y0046541D01*
X0027020Y0046680D01*
X0026972Y0046820D01*
X0026927Y0046961D01*
X0026886Y0047103D01*
X0026848Y0047246D01*
X0026815Y0047390D01*
X0026785Y0047535D01*
X0026759Y0047681D01*
X0026738Y0047827D01*
X0026720Y0047974D01*
X0026706Y0048121D01*
X0026696Y0048269D01*
X0026690Y0048417D01*
X0026688Y0048565D01*
X0026688Y0123565D02*
X0026690Y0123713D01*
X0026696Y0123861D01*
X0026706Y0124009D01*
X0026720Y0124156D01*
X0026738Y0124303D01*
X0026759Y0124449D01*
X0026785Y0124595D01*
X0026815Y0124740D01*
X0026848Y0124884D01*
X0026886Y0125027D01*
X0026927Y0125169D01*
X0026972Y0125310D01*
X0027020Y0125450D01*
X0027073Y0125589D01*
X0027129Y0125726D01*
X0027189Y0125861D01*
X0027252Y0125995D01*
X0027319Y0126127D01*
X0027390Y0126257D01*
X0027464Y0126385D01*
X0027541Y0126511D01*
X0027622Y0126635D01*
X0027706Y0126757D01*
X0027793Y0126876D01*
X0027884Y0126993D01*
X0027978Y0127108D01*
X0028074Y0127220D01*
X0028174Y0127330D01*
X0028276Y0127436D01*
X0028382Y0127540D01*
X0028490Y0127641D01*
X0028601Y0127739D01*
X0028714Y0127835D01*
X0028830Y0127927D01*
X0028948Y0128016D01*
X0029069Y0128101D01*
X0029192Y0128184D01*
X0029317Y0128263D01*
X0029444Y0128339D01*
X0029573Y0128411D01*
X0029704Y0128480D01*
X0029837Y0128545D01*
X0029972Y0128606D01*
X0030108Y0128664D01*
X0030245Y0128719D01*
X0030384Y0128769D01*
X0030525Y0128816D01*
X0030666Y0128859D01*
X0030809Y0128899D01*
X0030953Y0128934D01*
X0031097Y0128966D01*
X0031243Y0128993D01*
X0031389Y0129017D01*
X0031536Y0129037D01*
X0031683Y0129053D01*
X0031830Y0129065D01*
X0031978Y0129073D01*
X0032126Y0129077D01*
X0032274Y0129077D01*
X0032422Y0129073D01*
X0032570Y0129065D01*
X0032717Y0129053D01*
X0032864Y0129037D01*
X0033011Y0129017D01*
X0033157Y0128993D01*
X0033303Y0128966D01*
X0033447Y0128934D01*
X0033591Y0128899D01*
X0033734Y0128859D01*
X0033875Y0128816D01*
X0034016Y0128769D01*
X0034155Y0128719D01*
X0034292Y0128664D01*
X0034428Y0128606D01*
X0034563Y0128545D01*
X0034696Y0128480D01*
X0034827Y0128411D01*
X0034956Y0128339D01*
X0035083Y0128263D01*
X0035208Y0128184D01*
X0035331Y0128101D01*
X0035452Y0128016D01*
X0035570Y0127927D01*
X0035686Y0127835D01*
X0035799Y0127739D01*
X0035910Y0127641D01*
X0036018Y0127540D01*
X0036124Y0127436D01*
X0036226Y0127330D01*
X0036326Y0127220D01*
X0036422Y0127108D01*
X0036516Y0126993D01*
X0036607Y0126876D01*
X0036694Y0126757D01*
X0036778Y0126635D01*
X0036859Y0126511D01*
X0036936Y0126385D01*
X0037010Y0126257D01*
X0037081Y0126127D01*
X0037148Y0125995D01*
X0037211Y0125861D01*
X0037271Y0125726D01*
X0037327Y0125589D01*
X0037380Y0125450D01*
X0037428Y0125310D01*
X0037473Y0125169D01*
X0037514Y0125027D01*
X0037552Y0124884D01*
X0037585Y0124740D01*
X0037615Y0124595D01*
X0037641Y0124449D01*
X0037662Y0124303D01*
X0037680Y0124156D01*
X0037694Y0124009D01*
X0037704Y0123861D01*
X0037710Y0123713D01*
X0037712Y0123565D01*
X0037710Y0123417D01*
X0037704Y0123269D01*
X0037694Y0123121D01*
X0037680Y0122974D01*
X0037662Y0122827D01*
X0037641Y0122681D01*
X0037615Y0122535D01*
X0037585Y0122390D01*
X0037552Y0122246D01*
X0037514Y0122103D01*
X0037473Y0121961D01*
X0037428Y0121820D01*
X0037380Y0121680D01*
X0037327Y0121541D01*
X0037271Y0121404D01*
X0037211Y0121269D01*
X0037148Y0121135D01*
X0037081Y0121003D01*
X0037010Y0120873D01*
X0036936Y0120745D01*
X0036859Y0120619D01*
X0036778Y0120495D01*
X0036694Y0120373D01*
X0036607Y0120254D01*
X0036516Y0120137D01*
X0036422Y0120022D01*
X0036326Y0119910D01*
X0036226Y0119800D01*
X0036124Y0119694D01*
X0036018Y0119590D01*
X0035910Y0119489D01*
X0035799Y0119391D01*
X0035686Y0119295D01*
X0035570Y0119203D01*
X0035452Y0119114D01*
X0035331Y0119029D01*
X0035208Y0118946D01*
X0035083Y0118867D01*
X0034956Y0118791D01*
X0034827Y0118719D01*
X0034696Y0118650D01*
X0034563Y0118585D01*
X0034428Y0118524D01*
X0034292Y0118466D01*
X0034155Y0118411D01*
X0034016Y0118361D01*
X0033875Y0118314D01*
X0033734Y0118271D01*
X0033591Y0118231D01*
X0033447Y0118196D01*
X0033303Y0118164D01*
X0033157Y0118137D01*
X0033011Y0118113D01*
X0032864Y0118093D01*
X0032717Y0118077D01*
X0032570Y0118065D01*
X0032422Y0118057D01*
X0032274Y0118053D01*
X0032126Y0118053D01*
X0031978Y0118057D01*
X0031830Y0118065D01*
X0031683Y0118077D01*
X0031536Y0118093D01*
X0031389Y0118113D01*
X0031243Y0118137D01*
X0031097Y0118164D01*
X0030953Y0118196D01*
X0030809Y0118231D01*
X0030666Y0118271D01*
X0030525Y0118314D01*
X0030384Y0118361D01*
X0030245Y0118411D01*
X0030108Y0118466D01*
X0029972Y0118524D01*
X0029837Y0118585D01*
X0029704Y0118650D01*
X0029573Y0118719D01*
X0029444Y0118791D01*
X0029317Y0118867D01*
X0029192Y0118946D01*
X0029069Y0119029D01*
X0028948Y0119114D01*
X0028830Y0119203D01*
X0028714Y0119295D01*
X0028601Y0119391D01*
X0028490Y0119489D01*
X0028382Y0119590D01*
X0028276Y0119694D01*
X0028174Y0119800D01*
X0028074Y0119910D01*
X0027978Y0120022D01*
X0027884Y0120137D01*
X0027793Y0120254D01*
X0027706Y0120373D01*
X0027622Y0120495D01*
X0027541Y0120619D01*
X0027464Y0120745D01*
X0027390Y0120873D01*
X0027319Y0121003D01*
X0027252Y0121135D01*
X0027189Y0121269D01*
X0027129Y0121404D01*
X0027073Y0121541D01*
X0027020Y0121680D01*
X0026972Y0121820D01*
X0026927Y0121961D01*
X0026886Y0122103D01*
X0026848Y0122246D01*
X0026815Y0122390D01*
X0026785Y0122535D01*
X0026759Y0122681D01*
X0026738Y0122827D01*
X0026720Y0122974D01*
X0026706Y0123121D01*
X0026696Y0123269D01*
X0026690Y0123417D01*
X0026688Y0123565D01*
X0166688Y0048565D02*
X0166690Y0048713D01*
X0166696Y0048861D01*
X0166706Y0049009D01*
X0166720Y0049156D01*
X0166738Y0049303D01*
X0166759Y0049449D01*
X0166785Y0049595D01*
X0166815Y0049740D01*
X0166848Y0049884D01*
X0166886Y0050027D01*
X0166927Y0050169D01*
X0166972Y0050310D01*
X0167020Y0050450D01*
X0167073Y0050589D01*
X0167129Y0050726D01*
X0167189Y0050861D01*
X0167252Y0050995D01*
X0167319Y0051127D01*
X0167390Y0051257D01*
X0167464Y0051385D01*
X0167541Y0051511D01*
X0167622Y0051635D01*
X0167706Y0051757D01*
X0167793Y0051876D01*
X0167884Y0051993D01*
X0167978Y0052108D01*
X0168074Y0052220D01*
X0168174Y0052330D01*
X0168276Y0052436D01*
X0168382Y0052540D01*
X0168490Y0052641D01*
X0168601Y0052739D01*
X0168714Y0052835D01*
X0168830Y0052927D01*
X0168948Y0053016D01*
X0169069Y0053101D01*
X0169192Y0053184D01*
X0169317Y0053263D01*
X0169444Y0053339D01*
X0169573Y0053411D01*
X0169704Y0053480D01*
X0169837Y0053545D01*
X0169972Y0053606D01*
X0170108Y0053664D01*
X0170245Y0053719D01*
X0170384Y0053769D01*
X0170525Y0053816D01*
X0170666Y0053859D01*
X0170809Y0053899D01*
X0170953Y0053934D01*
X0171097Y0053966D01*
X0171243Y0053993D01*
X0171389Y0054017D01*
X0171536Y0054037D01*
X0171683Y0054053D01*
X0171830Y0054065D01*
X0171978Y0054073D01*
X0172126Y0054077D01*
X0172274Y0054077D01*
X0172422Y0054073D01*
X0172570Y0054065D01*
X0172717Y0054053D01*
X0172864Y0054037D01*
X0173011Y0054017D01*
X0173157Y0053993D01*
X0173303Y0053966D01*
X0173447Y0053934D01*
X0173591Y0053899D01*
X0173734Y0053859D01*
X0173875Y0053816D01*
X0174016Y0053769D01*
X0174155Y0053719D01*
X0174292Y0053664D01*
X0174428Y0053606D01*
X0174563Y0053545D01*
X0174696Y0053480D01*
X0174827Y0053411D01*
X0174956Y0053339D01*
X0175083Y0053263D01*
X0175208Y0053184D01*
X0175331Y0053101D01*
X0175452Y0053016D01*
X0175570Y0052927D01*
X0175686Y0052835D01*
X0175799Y0052739D01*
X0175910Y0052641D01*
X0176018Y0052540D01*
X0176124Y0052436D01*
X0176226Y0052330D01*
X0176326Y0052220D01*
X0176422Y0052108D01*
X0176516Y0051993D01*
X0176607Y0051876D01*
X0176694Y0051757D01*
X0176778Y0051635D01*
X0176859Y0051511D01*
X0176936Y0051385D01*
X0177010Y0051257D01*
X0177081Y0051127D01*
X0177148Y0050995D01*
X0177211Y0050861D01*
X0177271Y0050726D01*
X0177327Y0050589D01*
X0177380Y0050450D01*
X0177428Y0050310D01*
X0177473Y0050169D01*
X0177514Y0050027D01*
X0177552Y0049884D01*
X0177585Y0049740D01*
X0177615Y0049595D01*
X0177641Y0049449D01*
X0177662Y0049303D01*
X0177680Y0049156D01*
X0177694Y0049009D01*
X0177704Y0048861D01*
X0177710Y0048713D01*
X0177712Y0048565D01*
X0177710Y0048417D01*
X0177704Y0048269D01*
X0177694Y0048121D01*
X0177680Y0047974D01*
X0177662Y0047827D01*
X0177641Y0047681D01*
X0177615Y0047535D01*
X0177585Y0047390D01*
X0177552Y0047246D01*
X0177514Y0047103D01*
X0177473Y0046961D01*
X0177428Y0046820D01*
X0177380Y0046680D01*
X0177327Y0046541D01*
X0177271Y0046404D01*
X0177211Y0046269D01*
X0177148Y0046135D01*
X0177081Y0046003D01*
X0177010Y0045873D01*
X0176936Y0045745D01*
X0176859Y0045619D01*
X0176778Y0045495D01*
X0176694Y0045373D01*
X0176607Y0045254D01*
X0176516Y0045137D01*
X0176422Y0045022D01*
X0176326Y0044910D01*
X0176226Y0044800D01*
X0176124Y0044694D01*
X0176018Y0044590D01*
X0175910Y0044489D01*
X0175799Y0044391D01*
X0175686Y0044295D01*
X0175570Y0044203D01*
X0175452Y0044114D01*
X0175331Y0044029D01*
X0175208Y0043946D01*
X0175083Y0043867D01*
X0174956Y0043791D01*
X0174827Y0043719D01*
X0174696Y0043650D01*
X0174563Y0043585D01*
X0174428Y0043524D01*
X0174292Y0043466D01*
X0174155Y0043411D01*
X0174016Y0043361D01*
X0173875Y0043314D01*
X0173734Y0043271D01*
X0173591Y0043231D01*
X0173447Y0043196D01*
X0173303Y0043164D01*
X0173157Y0043137D01*
X0173011Y0043113D01*
X0172864Y0043093D01*
X0172717Y0043077D01*
X0172570Y0043065D01*
X0172422Y0043057D01*
X0172274Y0043053D01*
X0172126Y0043053D01*
X0171978Y0043057D01*
X0171830Y0043065D01*
X0171683Y0043077D01*
X0171536Y0043093D01*
X0171389Y0043113D01*
X0171243Y0043137D01*
X0171097Y0043164D01*
X0170953Y0043196D01*
X0170809Y0043231D01*
X0170666Y0043271D01*
X0170525Y0043314D01*
X0170384Y0043361D01*
X0170245Y0043411D01*
X0170108Y0043466D01*
X0169972Y0043524D01*
X0169837Y0043585D01*
X0169704Y0043650D01*
X0169573Y0043719D01*
X0169444Y0043791D01*
X0169317Y0043867D01*
X0169192Y0043946D01*
X0169069Y0044029D01*
X0168948Y0044114D01*
X0168830Y0044203D01*
X0168714Y0044295D01*
X0168601Y0044391D01*
X0168490Y0044489D01*
X0168382Y0044590D01*
X0168276Y0044694D01*
X0168174Y0044800D01*
X0168074Y0044910D01*
X0167978Y0045022D01*
X0167884Y0045137D01*
X0167793Y0045254D01*
X0167706Y0045373D01*
X0167622Y0045495D01*
X0167541Y0045619D01*
X0167464Y0045745D01*
X0167390Y0045873D01*
X0167319Y0046003D01*
X0167252Y0046135D01*
X0167189Y0046269D01*
X0167129Y0046404D01*
X0167073Y0046541D01*
X0167020Y0046680D01*
X0166972Y0046820D01*
X0166927Y0046961D01*
X0166886Y0047103D01*
X0166848Y0047246D01*
X0166815Y0047390D01*
X0166785Y0047535D01*
X0166759Y0047681D01*
X0166738Y0047827D01*
X0166720Y0047974D01*
X0166706Y0048121D01*
X0166696Y0048269D01*
X0166690Y0048417D01*
X0166688Y0048565D01*
M02*
